<svg xmlns="http://www.w3.org/2000/svg" xmlns:xlink="http://www.w3.org/1999/xlink" width="1366" zoomAndPan="magnify" viewBox="0 0 1024.5 576" height="768" preserveAspectRatio="xMidYMid meet" version="1.0"><defs><filter x="0%" y="0%" width="100%" height="100%" id="00dc4b9ded"><feColorMatrix values="0 0 0 0 1 0 0 0 0 1 0 0 0 0 1 0 0 0 1 0" color-interpolation-filters="sRGB"/></filter><clipPath id="03974d26d1"><path d="M 0 0.140625 L 1024 0.140625 L 1024 575.859375 L 0 575.859375 Z M 0 0.140625 " clip-rule="nonzero"/></clipPath><clipPath id="0bd0225ea6"><path d="M 0 101 L 259 101 L 259 575.859375 L 0 575.859375 Z M 0 101 " clip-rule="nonzero"/></clipPath><mask id="dae92c5c97"><g filter="url(#00dc4b9ded)"><rect x="-102.45" width="1229.4" fill="#000000" y="-57.6" height="691.2" fill-opacity="0.91"/></g></mask><clipPath id="0ac3cbed77"><path d="M 0 0.726562 L 258.515625 0.726562 L 258.515625 474.859375 L 0 474.859375 Z M 0 0.726562 " clip-rule="nonzero"/></clipPath><clipPath id="07e35813e9"><path d="M 74.964844 0.726562 L 183.550781 0.726562 C 224.953125 0.726562 258.515625 34.289062 258.515625 75.6875 L 258.515625 501.480469 C 258.515625 542.882812 224.953125 576.445312 183.550781 576.445312 L 74.964844 576.445312 C 33.5625 576.445312 0 542.882812 0 501.480469 L 0 75.6875 C 0 34.289062 33.5625 0.726562 74.964844 0.726562 Z M 74.964844 0.726562 " clip-rule="nonzero"/></clipPath><clipPath id="c6be0d1e70"><rect x="0" width="259" y="0" height="475"/></clipPath><clipPath id="4beb9bcd02"><path d="M 511 92 L 780 92 L 780 575.859375 L 511 575.859375 Z M 511 92 " clip-rule="nonzero"/></clipPath><mask id="fffb3442e1"><g filter="url(#00dc4b9ded)"><rect x="-102.45" width="1229.4" fill="#000000" y="-57.6" height="691.2" fill-opacity="0.91"/></g></mask><clipPath id="a5fb07dd4c"><path d="M 0.679688 0.816406 L 268.105469 0.816406 L 268.105469 483.859375 L 0.679688 483.859375 Z M 0.679688 0.816406 " clip-rule="nonzero"/></clipPath><clipPath id="2f6699ae2b"><path d="M 75.644531 0.816406 L 193.144531 0.816406 C 234.542969 0.816406 268.105469 34.375 268.105469 75.777344 L 268.105469 510.480469 C 268.105469 551.882812 234.542969 585.445312 193.144531 585.445312 L 75.644531 585.445312 C 34.242188 585.445312 0.679688 551.882812 0.679688 510.480469 L 0.679688 75.777344 C 0.679688 34.375 34.242188 0.816406 75.644531 0.816406 Z M 75.644531 0.816406 " clip-rule="nonzero"/></clipPath><clipPath id="2176fdecb2"><rect x="0" width="269" y="0" height="484"/></clipPath><clipPath id="bbd987840f"><path d="M 258 0.140625 L 513 0.140625 L 513 458 L 258 458 Z M 258 0.140625 " clip-rule="nonzero"/></clipPath><mask id="22493f60c9"><g filter="url(#00dc4b9ded)"><rect x="-102.45" width="1229.4" fill="#000000" y="-57.6" height="691.2" fill-opacity="0.91"/></g></mask><clipPath id="8018bae4b7"><path d="M 0.832031 0.140625 L 254 0.140625 L 254 457 L 0.832031 457 Z M 0.832031 0.140625 " clip-rule="nonzero"/></clipPath><clipPath id="a1ce0ff660"><path d="M 75.796875 -119.265625 L 179.035156 -119.265625 C 220.4375 -119.265625 254 -85.703125 254 -44.304688 L 254 381.488281 C 254 422.890625 220.4375 456.453125 179.035156 456.453125 L 75.796875 456.453125 C 34.394531 456.453125 0.832031 422.890625 0.832031 381.488281 L 0.832031 -44.304688 C 0.832031 -85.703125 34.394531 -119.265625 75.796875 -119.265625 Z M 75.796875 -119.265625 " clip-rule="nonzero"/></clipPath><clipPath id="b5623115e3"><rect x="0" width="255" y="0" height="458"/></clipPath><clipPath id="ee0ca12d3f"><path d="M 778 0.140625 L 1024 0.140625 L 1024 532 L 778 532 Z M 778 0.140625 " clip-rule="nonzero"/></clipPath><mask id="94eb5e5df4"><g filter="url(#00dc4b9ded)"><rect x="-102.45" width="1229.4" fill="#000000" y="-57.6" height="691.2" fill-opacity="0.91"/></g></mask><clipPath id="da3a00886b"><path d="M 1.105469 0.140625 L 246 0.140625 L 246 531.820312 L 1.105469 531.820312 Z M 1.105469 0.140625 " clip-rule="nonzero"/></clipPath><clipPath id="dc394e2ca4"><path d="M 76.070312 -44.066406 L 171.035156 -44.066406 C 212.4375 -44.066406 246 -10.503906 246 30.898438 L 246 456.691406 C 246 498.09375 212.4375 531.652344 171.035156 531.652344 L 76.070312 531.652344 C 34.667969 531.652344 1.105469 498.09375 1.105469 456.691406 L 1.105469 30.898438 C 1.105469 -10.503906 34.667969 -44.066406 76.070312 -44.066406 Z M 76.070312 -44.066406 " clip-rule="nonzero"/></clipPath><clipPath id="e14723c35b"><rect x="0" width="246" y="0" height="532"/></clipPath></defs><g clip-path="url(#03974d26d1)"><path fill="#ffffff" d="M 0 0.140625 L 1024 0.140625 L 1024 575.859375 L 0 575.859375 Z M 0 0.140625 " fill-opacity="1" fill-rule="nonzero"/><path fill="#f5f3f5" d="M 0 0.140625 L 1024 0.140625 L 1024 575.859375 L 0 575.859375 Z M 0 0.140625 " fill-opacity="1" fill-rule="nonzero"/></g><g clip-path="url(#0bd0225ea6)"><g mask="url(#dae92c5c97)"><g transform="matrix(1, 0, 0, 1, 0, 101)"><g clip-path="url(#c6be0d1e70)"><g clip-path="url(#0ac3cbed77)"><g clip-path="url(#07e35813e9)"><path fill="#d7263d" d="M 0 0.726562 L 258.515625 0.726562 L 258.515625 576.324219 L 0 576.324219 Z M 0 0.726562 " fill-opacity="1" fill-rule="nonzero"/></g></g></g></g></g></g><g clip-path="url(#4beb9bcd02)"><g mask="url(#fffb3442e1)"><g transform="matrix(1, 0, 0, 1, 511, 92)"><g clip-path="url(#2176fdecb2)"><g clip-path="url(#a5fb07dd4c)"><g clip-path="url(#2f6699ae2b)"><path fill="#f5f3f5" d="M 0.679688 0.816406 L 268.105469 0.816406 L 268.105469 585.804688 L 0.679688 585.804688 Z M 0.679688 0.816406 " fill-opacity="1" fill-rule="nonzero"/></g></g></g></g></g></g><g clip-path="url(#bbd987840f)"><g mask="url(#22493f60c9)"><g transform="matrix(1, 0, 0, 1, 258, 0.000000000000055289)"><g clip-path="url(#b5623115e3)"><g clip-path="url(#8018bae4b7)"><g clip-path="url(#a1ce0ff660)"><path fill="#141414" d="M 0.832031 -119.265625 L 254 -119.265625 L 254 456.292969 L 0.832031 456.292969 Z M 0.832031 -119.265625 " fill-opacity="1" fill-rule="nonzero"/></g></g></g></g></g></g><g clip-path="url(#ee0ca12d3f)"><g mask="url(#94eb5e5df4)"><g transform="matrix(1, 0, 0, 1, 778, 0.000000000000055289)"><g clip-path="url(#e14723c35b)"><g clip-path="url(#da3a00886b)"><g clip-path="url(#dc394e2ca4)"><path fill="#abacad" d="M 1.105469 -44.066406 L 246 -44.066406 L 246 531.820312 L 1.105469 531.820312 Z M 1.105469 -44.066406 " fill-opacity="1" fill-rule="nonzero"/></g></g></g></g></g></g></svg>