<svg xmlns="http://www.w3.org/2000/svg" xmlns:xlink="http://www.w3.org/1999/xlink" width="500" zoomAndPan="magnify" viewBox="0 0 375 374.999991" height="500" preserveAspectRatio="xMidYMid meet" version="1.0"><defs><clipPath id="39613e28d4"><path d="M 17.25 0 L 357.75 0 C 362.324219 0 366.710938 1.816406 369.949219 5.050781 C 373.183594 8.289062 375 12.675781 375 17.25 L 375 357.75 C 375 362.324219 373.183594 366.710938 369.949219 369.949219 C 366.710938 373.183594 362.324219 375 357.75 375 L 17.25 375 C 12.675781 375 8.289062 373.183594 5.050781 369.949219 C 1.816406 366.710938 0 362.324219 0 357.75 L 0 17.25 C 0 12.675781 1.816406 8.289062 5.050781 5.050781 C 8.289062 1.816406 12.675781 0 17.25 0 Z M 17.25 0 " clip-rule="nonzero"/></clipPath></defs><g clip-path="url(#39613e28d4)"><rect x="-37.5" width="450" fill="#f5f3f5" y="-37.499999" height="449.999989" fill-opacity="1"/></g><path fill="#141414" d="M 148.851562 97.8125 C 153.355469 97.8125 157.011719 94.15625 157.011719 89.652344 L 157.011719 73.855469 C 157.011719 53.425781 173.65625 36.78125 194.152344 36.78125 C 214.648438 36.78125 231.292969 53.425781 231.292969 73.855469 L 231.292969 89.652344 C 231.292969 94.15625 234.949219 97.8125 239.453125 97.8125 C 243.957031 97.8125 247.613281 94.15625 247.613281 89.652344 L 247.613281 76.074219 C 247.613281 47.550781 226.203125 22.484375 197.675781 20.589844 C 166.671875 18.566406 140.691406 43.242188 140.691406 73.855469 L 140.691406 89.652344 C 140.691406 94.15625 144.347656 97.8125 148.851562 97.8125 Z M 148.851562 97.8125 " fill-opacity="1" fill-rule="nonzero"/><path fill="#d7263d" d="M 320.460938 309.957031 L 302.507812 135.34375 C 301.074219 121.441406 289.390625 110.933594 275.417969 110.933594 L 112.886719 110.933594 C 98.914062 110.933594 87.230469 121.507812 85.796875 135.34375 L 81.292969 178.816406 C 78.289062 207.996094 106.03125 230.777344 134.035156 222.226562 L 149.242188 217.589844 C 166.539062 212.304688 185.863281 221.050781 192.652344 240.242188 C 195 246.898438 194.675781 254.210938 192.585938 261 L 185.863281 282.933594 C 176.59375 313.21875 199.242188 343.832031 230.902344 343.832031 L 289.910156 343.832031 C 308.121094 343.769531 322.351562 328.039062 320.460938 309.957031 Z M 320.460938 309.957031 " fill-opacity="1" fill-rule="nonzero"/><path fill="#141414" d="M 154.988281 236.261719 L 67.0625 263.089844 C 54.269531 267.003906 53.355469 284.761719 65.691406 289.980469 L 86.644531 298.792969 C 97.742188 303.492188 106.617188 312.304688 111.316406 323.46875 L 120.128906 344.421875 C 125.351562 356.757812 143.105469 355.84375 147.023438 343.050781 L 173.851562 255.125 C 177.441406 243.570312 166.605469 232.734375 154.988281 236.261719 Z M 154.988281 236.261719 " fill-opacity="1" fill-rule="nonzero"/></svg>